<?xml version="1.0" encoding="UTF-8"?>
<svg version="1.1" xmlns="http://www.w3.org/2000/svg" width="48" height="48">
<path d="M0 0 C4.68796317 2.8950501 8.77605467 6.42344712 10.234375 11.89453125 C11.16656452 18.74158704 11.3930195 24.99387098 7.671875 31.01953125 C3.66347868 35.99068326 0.31000422 38.47580101 -6.0078125 39.3359375 C-13.1275177 39.69575056 -18.34453314 39.19135672 -23.98828125 34.640625 C-29.08369757 29.63479842 -30.03494232 26.05750776 -30.390625 19.01953125 C-30.17838344 12.13997715 -28.58962241 7.80486419 -23.765625 2.89453125 C-17.29271618 -2.6344117 -7.84970384 -3.13766411 0 0 Z M-23.140625 10.51953125 C-25.34470393 15.09723364 -25.5627889 18.90005536 -24.765625 23.89453125 C-22.43593569 28.73311673 -19.60421048 31.56484194 -14.765625 33.89453125 C-9.77114911 34.69169515 -5.96832739 34.47361018 -1.390625 32.26953125 C2.19345213 29.0267948 4.82972741 26.42977229 5.6171875 21.49609375 C5.87321419 15.81230131 5.17064432 12.2451447 1.234375 7.89453125 C-3.11623845 3.95826193 -6.68339506 3.25569206 -12.3671875 3.51171875 C-17.30086604 4.29917884 -19.89788855 6.93545412 -23.140625 10.51953125 Z " fill="#FFFFFF" transform="translate(33.765625,5.10546875)"/>
<path d="M0 0 C0 1.65 0 3.3 0 5 C-0.78375 5.226875 -1.5675 5.45375 -2.375 5.6875 C-5.21875 6.78125 -5.21875 6.78125 -6.3125 9.625 C-6.539375 10.40875 -6.76625 11.1925 -7 12 C-8.65 12 -10.3 12 -12 12 C-11.76404051 5.98303301 -11.76404051 5.98303301 -9.7734375 3.421875 C-6.5828951 0.57492947 -4.25504796 -0.62574235 0 0 Z " fill="#FFFFFF" transform="translate(24,12)"/>
</svg>
