<?xml version="1.0" encoding="UTF-8"?>
<svg version="1.1" xmlns="http://www.w3.org/2000/svg" width="64" height="64">
<path d="M0 0 C4.29 0 8.58 0 13 0 C13 3.96 13 7.92 13 12 C16.96 12 20.92 12 25 12 C25 8.04 25 4.08 25 0 C29.62 0 34.24 0 39 0 C39 3.96 39 7.92 39 12 C42.96 12 46.92 12 51 12 C51 8.04 51 4.08 51 0 C55.29 0 59.58 0 64 0 C64 4.29 64 8.58 64 13 C60.04 13 56.08 13 52 13 C52 16.96 52 20.92 52 25 C55.96 25 59.92 25 64 25 C64 29.62 64 34.24 64 39 C60.04 39 56.08 39 52 39 C52 42.96 52 46.92 52 51 C55.96 51 59.92 51 64 51 C64 55.29 64 59.58 64 64 C59.71 64 55.42 64 51 64 C51 60.04 51 56.08 51 52 C47.04 52 43.08 52 39 52 C39 55.96 39 59.92 39 64 C34.38 64 29.76 64 25 64 C25 60.04 25 56.08 25 52 C21.04 52 17.08 52 13 52 C13 55.96 13 59.92 13 64 C8.71 64 4.42 64 0 64 C0 59.71 0 55.42 0 51 C3.96 51 7.92 51 12 51 C12 47.04 12 43.08 12 39 C8.04 39 4.08 39 0 39 C0 34.38 0 29.76 0 25 C3.96 25 7.92 25 12 25 C12 21.04 12 17.08 12 13 C8.04 13 4.08 13 0 13 C0 8.71 0 4.42 0 0 Z M26 13 C26 16.96 26 20.92 26 25 C29.96 25 33.92 25 38 25 C38 21.04 38 17.08 38 13 C34.04 13 30.08 13 26 13 Z M13 26 C13 29.96 13 33.92 13 38 C16.96 38 20.92 38 25 38 C25 34.04 25 30.08 25 26 C21.04 26 17.08 26 13 26 Z M39 26 C39 29.96 39 33.92 39 38 C42.96 38 46.92 38 51 38 C51 34.04 51 30.08 51 26 C47.04 26 43.08 26 39 26 Z M26 39 C26 42.96 26 46.92 26 51 C29.96 51 33.92 51 38 51 C38 47.04 38 43.08 38 39 C34.04 39 30.08 39 26 39 Z " fill="#000000" transform="translate(0,0)"/>
<path d="M0 0 C3.96 0 7.92 0 12 0 C12 4.29 12 8.58 12 13 C8.04 13 4.08 13 0 13 C0 8.71 0 4.42 0 0 Z " fill="#F7F7F7" transform="translate(52,51)"/>
<path d="M0 0 C3.96 0 7.92 0 12 0 C12 4.29 12 8.58 12 13 C8.04 13 4.08 13 0 13 C0 8.71 0 4.42 0 0 Z " fill="#F7F7F7" transform="translate(26,51)"/>
<path d="M0 0 C3.96 0 7.92 0 12 0 C12 4.29 12 8.58 12 13 C8.04 13 4.08 13 0 13 C0 8.71 0 4.42 0 0 Z " fill="#F7F7F7" transform="translate(0,51)"/>
<path d="M0 0 C3.96 0 7.92 0 12 0 C12 4.29 12 8.58 12 13 C8.04 13 4.08 13 0 13 C0 8.71 0 4.42 0 0 Z " fill="#F5F5F5" transform="translate(13,12)"/>
<path d="M0 0 C3.96 0 7.92 0 12 0 C12 4.29 12 8.58 12 13 C8.04 13 4.08 13 0 13 C0 8.71 0 4.42 0 0 Z " fill="#F7F7F7" transform="translate(52,0)"/>
<path d="M0 0 C3.96 0 7.92 0 12 0 C12 4.29 12 8.58 12 13 C8.04 13 4.08 13 0 13 C0 8.71 0 4.42 0 0 Z " fill="#F7F7F7" transform="translate(26,0)"/>
<path d="M0 0 C3.96 0 7.92 0 12 0 C12 4.29 12 8.58 12 13 C8.04 13 4.08 13 0 13 C0 8.71 0 4.42 0 0 Z " fill="#F7F7F7" transform="translate(0,0)"/>
<path d="M0 0 C3.96 0 7.92 0 12 0 C12 3.96 12 7.92 12 12 C8.04 12 4.08 12 0 12 C0 8.04 0 4.08 0 0 Z " fill="#FFFFFF" transform="translate(39,39)"/>
<path d="M0 0 C3.96 0 7.92 0 12 0 C12 3.96 12 7.92 12 12 C8.04 12 4.08 12 0 12 C0 8.04 0 4.08 0 0 Z " fill="#FFFFFF" transform="translate(13,39)"/>
<path d="M0 0 C3.96 0 7.92 0 12 0 C12 3.96 12 7.92 12 12 C8.04 12 4.08 12 0 12 C0 8.04 0 4.08 0 0 Z " fill="#FFFFFF" transform="translate(52,26)"/>
<path d="M0 0 C3.96 0 7.92 0 12 0 C12 3.96 12 7.92 12 12 C8.04 12 4.08 12 0 12 C0 8.04 0 4.08 0 0 Z " fill="#FFFFFF" transform="translate(26,26)"/>
<path d="M0 0 C3.96 0 7.92 0 12 0 C12 3.96 12 7.92 12 12 C8.04 12 4.08 12 0 12 C0 8.04 0 4.08 0 0 Z " fill="#FFFFFF" transform="translate(0,26)"/>
<path d="M0 0 C3.96 0 7.92 0 12 0 C12 3.96 12 7.92 12 12 C8.04 12 4.08 12 0 12 C0 8.04 0 4.08 0 0 Z " fill="#FFFFFF" transform="translate(39,13)"/>
</svg>
