<?xml version="1.0" encoding="UTF-8"?>
<svg version="1.1" xmlns="http://www.w3.org/2000/svg" width="50" height="50">
<path d="M0 0 C14.52 0 29.04 0 44 0 C44 7.59 44 15.18 44 23 C43.34 23 42.68 23 42 23 C42 18.38 42 13.76 42 9 C28.8 9 15.6 9 2 9 C2 18.9 2 28.8 2 39 C9.59 39 17.18 39 25 39 C25 39.66 25 40.32 25 41 C16.75 41 8.5 41 0 41 C0 27.47 0 13.94 0 0 Z M3 2 C2.67 3.65 2.34 5.3 2 7 C15.2 7 28.4 7 42 7 C41.505 4.525 41.505 4.525 41 2 C28.46 2 15.92 2 3 2 Z " fill="#FFFFFF" transform="translate(0,0)"/>
<path d="M0 0 C2.625 0.9375 2.625 0.9375 5 2 C5.49609375 4.44921875 5.49609375 4.44921875 5 8 C2.70258937 11.28699296 -0.08187151 14.00944375 -2.9375 16.8125 C-3.67291016 17.58787109 -4.40832031 18.36324219 -5.16601562 19.16210938 C-8.93499676 22.92450713 -11.65569872 25.40416723 -17.06640625 26.01171875 C-19.01353516 26.00591797 -19.01353516 26.00591797 -21 26 C-19.26191545 18.21447392 -15.67498133 13.87730346 -9.9375 8.5 C-9.20466797 7.78585938 -8.47183594 7.07171875 -7.71679688 6.3359375 C-2.40046182 1.20023091 -2.40046182 1.20023091 0 0 Z M-2 5 C-6.62 9.62 -11.24 14.24 -16 19 C-15.67 19.66 -15.34 20.32 -15 21 C-11.36953654 19.43805642 -8.78806795 17.21034833 -5.875 14.5625 C-5.00617187 13.78003906 -4.13734375 12.99757813 -3.2421875 12.19140625 C-0.86009509 10.01475431 -0.86009509 10.01475431 1 7 C0.01 6.34 -0.98 5.68 -2 5 Z " fill="#FFFFFF" transform="translate(45,24)"/>
<path d="M0 0 C7.59 0 15.18 0 23 0 C23 0.66 23 1.32 23 2 C15.41 2 7.82 2 0 2 C0 1.34 0 0.68 0 0 Z " fill="#FFFFFF" transform="translate(14,25)"/>
<path d="M0 0 C7.59 0 15.18 0 23 0 C23 0.66 23 1.32 23 2 C15.41 2 7.82 2 0 2 C0 1.34 0 0.68 0 0 Z " fill="#FFFFFF" transform="translate(14,20)"/>
<path d="M0 0 C7.59 0 15.18 0 23 0 C23 0.66 23 1.32 23 2 C15.41 2 7.82 2 0 2 C0 1.34 0 0.68 0 0 Z " fill="#FFFFFF" transform="translate(14,15)"/>
<path d="M0 0 C6.27 0 12.54 0 19 0 C19 0.66 19 1.32 19 2 C12.73 2 6.46 2 0 2 C0 1.34 0 0.68 0 0 Z " fill="#FFFFFF" transform="translate(14,30)"/>
<path d="M0 0 C1.32 0 2.64 0 4 0 C4 0.66 4 1.32 4 2 C2.68 2 1.36 2 0 2 C0 1.34 0 0.68 0 0 Z " fill="#FFFFFF" transform="translate(7,30)"/>
<path d="M0 0 C1.32 0 2.64 0 4 0 C4 0.66 4 1.32 4 2 C2.68 2 1.36 2 0 2 C0 1.34 0 0.68 0 0 Z " fill="#FFFFFF" transform="translate(7,25)"/>
<path d="M0 0 C1.32 0 2.64 0 4 0 C4 0.66 4 1.32 4 2 C2.68 2 1.36 2 0 2 C0 1.34 0 0.68 0 0 Z " fill="#FFFFFF" transform="translate(7,20)"/>
<path d="M0 0 C1.32 0 2.64 0 4 0 C4 0.66 4 1.32 4 2 C2.68 2 1.36 2 0 2 C0 1.34 0 0.68 0 0 Z " fill="#FFFFFF" transform="translate(7,15)"/>
</svg>
