<?xml version="1.0" encoding="UTF-8"?>
<svg version="1.1" xmlns="http://www.w3.org/2000/svg" width="48" height="48">
<path d="M0 0 C4.30005931 2.52258176 8.66862069 6.36487711 10.18725586 11.24389648 C10.66799676 13.65296343 10.75451337 15.86020176 10.7578125 18.31640625 C10.75974609 19.69795898 10.75974609 19.69795898 10.76171875 21.10742188 C10.75785156 22.06197266 10.75398438 23.01652344 10.75 24 C10.75580078 25.43762695 10.75580078 25.43762695 10.76171875 26.90429688 C10.76042969 27.82404297 10.75914063 28.74378906 10.7578125 29.69140625 C10.75668457 30.53002197 10.75555664 31.3686377 10.75439453 32.23266602 C10.625 34.4375 10.625 34.4375 9.625 37.4375 C10.615 38.0975 11.605 38.7575 12.625 39.4375 C12.295 40.4275 11.965 41.4175 11.625 42.4375 C10.965 42.4375 10.305 42.4375 9.625 42.4375 C9.0371875 41.6640625 9.0371875 41.6640625 8.4375 40.875 C7.5403125 40.1634375 7.5403125 40.1634375 6.625 39.4375 C4.28626801 39.73056691 1.95342802 40.07146923 -0.375 40.4375 C-16.47707833 41.32541948 -16.47707833 41.32541948 -23.375 37.4375 C-27.86599843 33.35018683 -30.96701354 28.98221357 -31.67578125 22.82421875 C-31.70522009 16.04347188 -31.51878151 9.92282814 -26.79296875 4.68359375 C-19.38483447 -2.01439258 -9.40020376 -4.22013001 0 0 Z M-23.25 10.5 C-25.83749817 14.95624686 -25.98444846 19.42457178 -25.375 24.4375 C-23.0119136 29.25456073 -20.19206073 32.0744136 -15.375 34.4375 C-12.34113303 34.74535557 -9.41145159 34.68041613 -6.375 34.4375 C-6.045 33.179375 -5.715 31.92125 -5.375 30.625 C-4.39838139 27.93334383 -3.87005128 26.73726478 -1.39453125 25.23828125 C0.8125 24.4375 0.8125 24.4375 4.625 23.4375 C5.15265991 17.52770898 4.53929188 14.03256182 1.10546875 9.13671875 C-2.21652657 5.32387452 -5.40870703 4.54486589 -10.3125 4 C-15.67683421 4.21580655 -19.63076114 6.51883725 -23.25 10.5 Z M-2.0625 27.75 C-3.68197031 29.47587129 -3.68197031 29.47587129 -3.375 32.4375 C-0.75312506 31.38875002 0.41871361 30.78818687 1.875 28.3125 C2.1225 27.69375 2.37 27.075 2.625 26.4375 C-0.33662871 26.13052969 -0.33662871 26.13052969 -2.0625 27.75 Z M6.625 32.4375 C5.26672029 34.08389965 3.93245749 35.75045807 2.625 37.4375 C3.945 37.1075 5.265 36.7775 6.625 36.4375 C6.955 35.1175 7.285 33.7975 7.625 32.4375 C7.295 32.4375 6.965 32.4375 6.625 32.4375 Z " fill="#FFFFFF" transform="translate(34.375,4.5625)"/>
<path d="M0 0 C0 1.98 0 3.96 0 6 C-1.65 6.33 -3.3 6.66 -5 7 C-5.33 8.65 -5.66 10.3 -6 12 C-7.98 12 -9.96 12 -12 12 C-12.4308069 7.6057696 -12.52544547 5.67140255 -9.75 2.125 C-5.99353597 -0.77772221 -4.51655361 -1.50551787 0 0 Z " fill="#FFFFFF" transform="translate(24,12)"/>
</svg>
