<?xml version="1.0" encoding="UTF-8"?>
<svg version="1.1" xmlns="http://www.w3.org/2000/svg" width="48" height="48">
<path d="M0 0 C4.8404001 2.60960701 8.06650639 6.09014417 9.796875 11.28125 C10.46163179 18.73524418 10.44121145 24.25616487 5.796875 30.28125 C0.39692227 35.28608423 -4.05234248 35.63143872 -11.1875 35.5625 C-16.73027207 35.04555753 -19.78938645 32.80659949 -23.578125 28.71875 C-27.13749657 23.37969265 -26.78151279 17.4828524 -26.203125 11.28125 C-24.60392 6.37933903 -21.45575292 3.11633528 -17.203125 0.28125 C-11.84906913 -1.50343529 -5.40672306 -1.76389547 0 0 Z " fill="#58DC45" transform="translate(32.203125,6.71875)"/>
<path d="M0 0 C4.8404001 2.60960701 8.06650639 6.09014417 9.796875 11.28125 C10.46163179 18.73524418 10.44121145 24.25616487 5.796875 30.28125 C0.39692227 35.28608423 -4.05234248 35.63143872 -11.1875 35.5625 C-16.73027207 35.04555753 -19.78938645 32.80659949 -23.578125 28.71875 C-27.13749657 23.37969265 -26.78151279 17.4828524 -26.203125 11.28125 C-24.60392 6.37933903 -21.45575292 3.11633528 -17.203125 0.28125 C-11.84906913 -1.50343529 -5.40672306 -1.76389547 0 0 Z M-23.203125 8.28125 C-25.20501786 12.28503572 -24.68862338 17.24287076 -23.671875 21.51171875 C-21.98942195 26.38534633 -19.90967938 29.70290145 -15.34765625 32.36328125 C-10.60587083 34.39300725 -5.63998816 33.79635189 -0.890625 32.09375 C3.21726632 29.32331167 5.22576366 26.66823468 7.109375 22.09375 C8.14561672 16.34731862 8.62244382 11.2209912 5.43359375 6.0859375 C1.37840108 1.79629044 -2.36334487 0.73242462 -8.203125 0.40625 C-15.10077604 0.73223995 -18.96839036 2.88714997 -23.203125 8.28125 Z " fill="#3DC92B" transform="translate(32.203125,6.71875)"/>
<path d="M0 0 C0.33 0 0.66 0 1 0 C1.09796875 0.74765625 1.1959375 1.4953125 1.296875 2.265625 C2.26809216 9.59208447 2.26809216 9.59208447 7 15 C7 15.66 7 16.32 7 17 C13.43279077 19.63909365 19.65926884 19.94462002 26.3125 17.9375 C29.78275008 16.45123751 31.6375362 14.52074051 33.32421875 11.05078125 C34.51502828 7.43705291 34.82835743 3.78471875 35 0 C35.33 0 35.66 0 36 0 C36.50453712 6.96541522 36.20796217 11.31356464 32 17 C26.60004727 22.00483423 22.15078252 22.35018872 15.015625 22.28125 C9.47285293 21.76430753 6.41373855 19.52534949 2.625 15.4375 C0.19523205 11.79284807 -0.1180452 9.0894806 -0.0625 4.8125 C-0.05347656 3.91144531 -0.04445313 3.01039062 -0.03515625 2.08203125 C-0.02355469 1.39496094 -0.01195312 0.70789063 0 0 Z " fill="#2AC216" transform="translate(6,20)"/>
<path d="M0 0 C0.33 0 0.66 0 1 0 C1.09796875 0.74765625 1.1959375 1.4953125 1.296875 2.265625 C2.1242422 8.41179202 2.1242422 8.41179202 5.125 13.6875 C6.053125 14.3371875 6.053125 14.3371875 7 15 C6.67 15.66 6.34 16.32 6 17 C1.125 13.375 1.125 13.375 0 10 C-0.06802967 8.27204648 -0.08495645 6.54164635 -0.0625 4.8125 C-0.05347656 3.91144531 -0.04445313 3.01039062 -0.03515625 2.08203125 C-0.02355469 1.39496094 -0.01195312 0.70789063 0 0 Z " fill="#2FC31D" transform="translate(6,20)"/>
<path d="M0 0 C-0.66 0.66 -1.32 1.32 -2 2 C-2.33 1.67 -2.66 1.34 -3 1 C-4.68183948 0.76712992 -6.3712416 0.58735834 -8.0625 0.4375 C-9.44115234 0.31181641 -9.44115234 0.31181641 -10.84765625 0.18359375 C-11.91306641 0.09271484 -11.91306641 0.09271484 -13 0 C-13 -0.33 -13 -0.66 -13 -1 C-7.96488101 -2.0070238 -4.76052962 -1.97387813 0 0 Z " fill="#47CB34" transform="translate(34,8)"/>
</svg>
