<?xml version="1.0" encoding="UTF-8"?>
<svg version="1.1" xmlns="http://www.w3.org/2000/svg" width="48" height="48">
<path d="M0 0 C4.8404001 2.60960701 8.06650639 6.09014417 9.796875 11.28125 C10.46163179 18.73524418 10.44121145 24.25616487 5.796875 30.28125 C0.39692227 35.28608423 -4.05234248 35.63143872 -11.1875 35.5625 C-16.73027207 35.04555753 -19.78938645 32.80659949 -23.578125 28.71875 C-27.13749657 23.37969265 -26.78151279 17.4828524 -26.203125 11.28125 C-24.60392 6.37933903 -21.45575292 3.11633528 -17.203125 0.28125 C-11.84906913 -1.50343529 -5.40672306 -1.76389547 0 0 Z " fill="#E94A4A" transform="translate(32.203125,6.71875)"/>
<path d="M0 0 C4.8404001 2.60960701 8.06650639 6.09014417 9.796875 11.28125 C10.46163179 18.73524418 10.44121145 24.25616487 5.796875 30.28125 C0.39692227 35.28608423 -4.05234248 35.63143872 -11.1875 35.5625 C-16.73027207 35.04555753 -19.78938645 32.80659949 -23.578125 28.71875 C-27.13749657 23.37969265 -26.78151279 17.4828524 -26.203125 11.28125 C-24.60392 6.37933903 -21.45575292 3.11633528 -17.203125 0.28125 C-11.84906913 -1.50343529 -5.40672306 -1.76389547 0 0 Z M-21.578125 6.28125 C-24.76653471 10.22282735 -24.89430303 13.75344684 -24.58984375 18.69921875 C-23.82197968 23.82606874 -22.01776775 26.46660725 -18.390625 30.09375 C-13.4395251 33.49156365 -8.89682318 33.71537874 -3.09375 32.8515625 C1.0184386 31.61110891 3.0690225 28.24305509 5.546875 24.96875 C7.81354129 20.09541749 8.01571386 15.86783172 7.296875 10.65625 C5.36846525 6.31732807 2.72172031 3.88615847 -1.203125 1.28125 C-9.25596988 -1.40303163 -15.59456751 0.45147553 -21.578125 6.28125 Z " fill="#D03939" transform="translate(32.203125,6.71875)"/>
<path d="M0 0 C0.33 0 0.66 0 1 0 C1.50453712 6.96541522 1.20796217 11.31356464 -3 17 C-8.39996212 22.00484294 -12.84653136 22.34554024 -19.98046875 22.28515625 C-25.24782421 21.78772165 -28.4584084 19.79023541 -31.9375 15.75 C-32.288125 15.1725 -32.63875 14.595 -33 14 C-32.67 13.34 -32.34 12.68 -32 12 C-31.49210937 12.42152344 -30.98421875 12.84304687 -30.4609375 13.27734375 C-24.90012432 17.70308458 -21.10175608 19.38383891 -13.9375 18.6875 C-7.29765442 17.61628474 -7.29765442 17.61628474 -2.75 12.9375 C-0.58276439 8.79528355 -0.20927294 4.61446829 0 0 Z " fill="#C51B1B" transform="translate(41,20)"/>
<path d="M0 0 C0.680625 -0.00257813 1.36125 -0.00515625 2.0625 -0.0078125 C4 0.125 4 0.125 7 1.125 C7 1.785 7 2.445 7 3.125 C5.89591797 3.07279297 5.89591797 3.07279297 4.76953125 3.01953125 C-1.89285731 2.83470937 -5.52979964 3.1689034 -10.6875 7.5625 C-12.15079273 9.30451516 -13.07181335 11.05442977 -14 13.125 C-14.33 13.125 -14.66 13.125 -15 13.125 C-15.23828125 10.859375 -15.23828125 10.859375 -15 8.125 C-13.35546875 6.140625 -13.35546875 6.140625 -11.1875 4.375 C-10.47980469 3.78203125 -9.77210937 3.1890625 -9.04296875 2.578125 C-6.05611788 0.45363451 -3.57283203 -0.01353345 0 0 Z " fill="#E45656" transform="translate(24,6.875)"/>
<path d="M0 0 C0.66 0 1.32 0 2 0 C1.67386719 0.7115625 1.34773437 1.423125 1.01171875 2.15625 C-0.05476683 5.1539392 -0.2364005 7.33480419 -0.1875 10.5 C-0.18105469 11.4178125 -0.17460937 12.335625 -0.16796875 13.28125 C-0.00378988 15.93865687 0.41265001 18.40626246 1 21 C0.01 21 -0.98 21 -2 21 C-3.74988965 15.75033105 -4.01226775 9.19570574 -2.328125 3.87890625 C-1.5 2.25 -1.5 2.25 0 0 Z " fill="#CE3434" transform="translate(9,12)"/>
<path d="M0 0 C0.33 0 0.66 0 1 0 C1 2.64 1 5.28 1 8 C1.66 8 2.32 8 3 8 C3.33 9.65 3.66 11.3 4 13 C3.01 13 2.02 13 1 13 C-0.00496852 9.98509443 -0.10335303 7.95818308 -0.0625 4.8125 C-0.05347656 3.91144531 -0.04445313 3.01039062 -0.03515625 2.08203125 C-0.02355469 1.39496094 -0.01195312 0.70789063 0 0 Z " fill="#CA2727" transform="translate(6,20)"/>
<path d="M0 0 C1 3 1 3 0.07421875 5.04296875 C-0.61220703 6.10451172 -0.61220703 6.10451172 -1.3125 7.1875 C-1.76238281 7.90292969 -2.21226563 8.61835937 -2.67578125 9.35546875 C-3.11277344 9.89816406 -3.54976562 10.44085938 -4 11 C-4.66 11 -5.32 11 -6 11 C-4.18690997 7.22272911 -2.0926741 3.62730178 0 0 Z " fill="#D32F2F" transform="translate(40,26)"/>
</svg>
